<svg width="482" height="334" viewBox="0 0 482 334" fill="none" xmlns="http://www.w3.org/2000/svg">
<g clip-path="url(#clip0_94_32)">
<path d="M191.95 333.61C297.961 333.61 383.9 326.29 383.9 317.26C383.9 308.23 297.961 300.91 191.95 300.91C85.9389 300.91 0 308.23 0 317.26C0 326.29 85.9389 333.61 191.95 333.61Z" fill="#AEAEAE"/>
<path d="M273.83 34.3702C273.83 34.3702 269 54.7202 241.44 79.5502C241.44 79.5502 238.81 75.8302 244.69 61.5502C250.57 47.2702 272.68 29.2902 273.83 34.3702Z" fill="#828282"/>
<path d="M273.83 34.3701C273.83 34.3701 249.52 49.5101 241.44 79.5501C241.44 79.5501 239.58 89.9101 242.58 99.1801" stroke="black" stroke-miterlimit="10" stroke-linecap="round"/>
<path d="M210.29 47C210.29 47 217.13 42.47 206.7 29.42C196.8 17 186.19 5.77 164.39 0.5C164.39 0.5 169.13 30.79 183.04 38.83C191.354 43.6581 200.691 46.4572 210.29 47Z" fill="#828282"/>
<path d="M155.36 65.52C155.36 65.52 178.05 72.01 217.9 61.52C217.9 61.52 215.74 57.33 198.39 54.86C181.04 52.39 151 61.88 155.36 65.52Z" fill="#828282"/>
<path d="M155.36 65.5199C155.36 65.5199 183.9 52.6799 217.9 61.5199C217.9 61.5199 221.39 62.6299 224.68 67.6799" stroke="black" stroke-miterlimit="10" stroke-linecap="round"/>
<path d="M173.1 87.5798C173.1 87.5798 196.68 105.37 236.53 94.8498C234.104 90.3803 230.663 86.5422 226.485 83.6436C222.306 80.745 217.506 78.8668 212.47 78.1598C195.13 75.6898 168.77 83.9398 173.1 87.5798Z" fill="#828282"/>
<path d="M173.1 87.5801C173.1 87.5801 200.43 76.9001 236.53 94.8501C239.575 96.6534 242.157 99.1428 244.07 102.12" stroke="black" stroke-miterlimit="10" stroke-linecap="round"/>
<path d="M261.49 14.0001C261.49 14.0001 268.81 13.5901 250.03 28.8601C232.29 43.2701 234.41 43.5301 234.41 43.5301C234.41 43.5301 242.25 20.7801 261.49 14.0001Z" fill="black"/>
<path d="M221.73 50.62C221.73 50.62 227.02 53.06 237.39 44.7C247.76 36.34 252.68 16.56 261.49 14C261.49 14 239.45 19.61 221.73 50.62Z" fill="#828282"/>
<path d="M252.91 121.68C241.876 95.1054 227.558 70.0169 210.29 47C210.29 47 205.6 40 188.93 21.44C172.26 2.88 164.39 0.5 164.39 0.5" stroke="black" stroke-miterlimit="10" stroke-linecap="round"/>
<path d="M258.87 14.9199C258.87 14.9199 237.75 22.5699 221.73 50.6199C217.85 57.4099 221.6 63.2199 224.73 67.6199" stroke="black" stroke-miterlimit="10" stroke-linecap="round"/>
<path d="M472.72 279.21C472.72 279.21 452.23 285.35 418.05 263.21C418.05 263.21 420.29 257.26 435.75 256.3C451.21 255.34 476.82 274.42 472.72 279.21Z" fill="#828282"/>
<path d="M472 277.699C472 277.699 449.5 259.989 418.5 262.609C418.5 262.609 408.12 264.389 400.43 270.369" stroke="black" stroke-miterlimit="10" stroke-linecap="round"/>
<path d="M428.13 233.55C428.13 233.55 434.71 238.44 443.44 224.19C451.73 210.65 458.69 196.86 456.22 174.56C456.22 174.56 429.35 189.33 426.52 205.15C424.817 214.611 425.369 224.341 428.13 233.55Z" fill="#828282"/>
<path d="M481 259C481 259 485.3 264.939 462.3 257.399C440.58 250.279 441.51 252.199 441.51 252.199C441.51 252.199 464.87 246.479 481 259Z" fill="black"/>
<path d="M428.68 245.359C428.68 245.359 429.49 251.129 442.12 255.359C454.75 259.589 474.07 252.999 481 258.999C481 258.999 464.34 243.479 428.68 245.359Z" fill="#828282"/>
<path d="M372.4 299C393.633 279.577 412.354 257.576 428.13 233.51C428.13 233.51 433.13 226.7 444.89 204.72C456.65 182.74 456.22 174.52 456.22 174.52" stroke="black" stroke-miterlimit="10" stroke-linecap="round"/>
<path d="M478.79 257.28C478.79 257.28 460.93 243.66 428.68 245.36C420.87 245.77 417.33 249.57 411.47 256.88" stroke="black" stroke-miterlimit="10" stroke-linecap="round"/>
<path d="M259.69 75.3298C265.959 75.331 272.029 73.1294 276.84 69.1098L290.2 57.9998C294.756 54.0808 300.551 51.8988 306.56 51.8398H372.84C375.723 51.8398 378.488 52.983 380.53 55.0188C382.571 57.0546 383.722 59.8168 383.73 62.6998V302.64C383.73 307.624 381.751 312.405 378.227 315.93C374.704 319.455 369.924 321.437 364.94 321.44H34.5399C30.6642 321.437 26.9481 319.896 24.2085 317.154C21.4689 314.413 19.9299 310.696 19.9299 306.82V89.9398C19.9299 86.065 21.4692 82.3489 24.2091 79.609C26.949 76.8691 30.6651 75.3298 34.5399 75.3298H259.69Z" fill="#D3D3D3"/>
<path d="M19.93 308C19.93 308 42.41 265.83 44.66 261L106.11 135.81C106.867 134.181 108.074 132.802 109.589 131.836C111.104 130.871 112.864 130.358 114.66 130.36H343C351.3 130.36 363.31 126 369.68 120.69L378.9 113C383.456 109.081 389.251 106.899 395.26 106.84H458.33C459.877 106.84 461.399 107.222 462.764 107.95C464.128 108.679 465.292 109.732 466.153 111.017C467.014 112.301 467.545 113.778 467.7 115.317C467.854 116.856 467.628 118.409 467.04 119.84L390.79 304.35C388.7 309.407 385.157 313.73 380.609 316.772C376.061 319.815 370.712 321.439 365.24 321.44H24.05C22.9459 321.426 21.8888 320.99 21.0951 320.223C20.3014 319.455 19.8309 318.413 19.78 317.31L19.93 308Z" fill="#EEEEEE"/>
<path d="M112.81 142.28L22.6401 317.57" stroke="black" stroke-linejoin="round"/>
<path d="M150 172.49H227.67C228.709 172.492 229.731 172.233 230.644 171.739C231.558 171.245 232.333 170.53 232.9 169.66C233.492 168.732 233.822 167.66 233.855 166.56C233.887 165.459 233.621 164.37 233.085 163.409C232.549 162.447 231.762 161.648 230.809 161.098C229.856 160.547 228.771 160.264 227.67 160.28H150C148.961 160.278 147.939 160.536 147.026 161.031C146.112 161.525 145.337 162.24 144.77 163.11C144.178 164.038 143.848 165.109 143.815 166.21C143.783 167.311 144.049 168.399 144.585 169.361C145.121 170.323 145.908 171.121 146.861 171.672C147.814 172.223 148.899 172.506 150 172.49Z" stroke="black" stroke-linejoin="round"/>
<path d="M295.27 232.73L234.79 268.76" stroke="black" stroke-linecap="round" stroke-linejoin="round"/>
<path d="M245.82 231L283.82 268.98" stroke="black" stroke-linecap="round" stroke-linejoin="round"/>
<path d="M274.926 283.596C299.13 276.902 314.65 256.649 309.592 238.359C304.533 220.069 280.812 210.669 256.608 217.363C232.404 224.057 216.884 244.31 221.942 262.6C227.001 280.89 250.723 290.29 274.926 283.596Z" stroke="black" stroke-linecap="round" stroke-linejoin="round"/>
</g>
<defs>
<clipPath id="clip0_94_32">
<rect width="481.29" height="333.61" fill="white"/>
</clipPath>
</defs>
</svg>
