<svg width="630" height="360" viewBox="0 0 630 360" fill="none" xmlns="http://www.w3.org/2000/svg">
<path d="M495.337 98.6914H548.277C549.808 98.6888 551.323 98.9879 552.738 99.5717C554.152 100.156 555.438 101.012 556.521 102.094C557.604 103.175 558.463 104.459 559.049 105.872C559.636 107.286 559.937 108.801 559.937 110.331V150.501C559.937 153.589 558.711 156.549 556.528 158.732C554.345 160.915 551.384 162.141 548.297 162.141H504.527L484.527 179.621L494.137 162.061C491.274 161.767 488.621 160.421 486.693 158.284C484.764 156.146 483.697 153.37 483.697 150.491V110.331C483.697 107.244 484.924 104.284 487.107 102.101C489.289 99.9178 492.25 98.6914 495.337 98.6914Z" fill="white" stroke="#263238" stroke-linecap="round" stroke-linejoin="round"/>
<path d="M515.187 141.061V133.241C517.027 131.777 518.725 130.143 520.257 128.361C521.72 126.684 522.926 124.8 523.837 122.771C524.709 120.799 525.155 118.666 525.147 116.511C525.224 115.242 524.872 113.985 524.147 112.941C523.801 112.532 523.364 112.211 522.87 112.005C522.376 111.798 521.841 111.711 521.307 111.751C520.825 111.729 520.344 111.807 519.894 111.979C519.443 112.151 519.032 112.414 518.687 112.751C518.351 113.099 518.09 113.511 517.918 113.963C517.746 114.415 517.667 114.897 517.687 115.381C517.694 115.949 517.778 116.515 517.937 117.061C518.087 117.551 518.237 118.061 518.397 118.651L510.037 120.541C509.755 119.669 509.528 118.781 509.357 117.881C509.197 117.006 509.117 116.119 509.117 115.231C509.034 113.693 509.277 112.155 509.83 110.717C510.383 109.28 511.234 107.976 512.327 106.891C514.46 104.891 517.524 103.891 521.517 103.891C525.51 103.891 528.644 104.971 530.917 107.131C533.117 109.277 534.217 112.351 534.217 116.351C534.234 118.77 533.8 121.171 532.937 123.431C532.048 125.684 530.798 127.778 529.237 129.631C527.535 131.654 525.621 133.487 523.527 135.101V141.101L515.187 141.061ZM514.887 153.951V145.061H523.887V153.921L514.887 153.951Z" fill="#263238"/>
<path d="M239.637 21H167.747C164.66 21 161.7 22.2263 159.517 24.4093C157.334 26.5922 156.107 29.5529 156.107 32.64V72.81C156.107 75.8971 157.334 78.8578 159.517 81.0407C161.7 83.2236 164.66 84.45 167.747 84.45H230.457L250.457 101.93L240.827 84.39C243.691 84.091 246.342 82.7422 248.27 80.6039C250.198 78.4655 251.266 75.6891 251.267 72.81V32.64C251.267 29.5546 250.042 26.5954 247.862 24.4128C245.681 22.2302 242.723 21.0027 239.637 21Z" fill="white" stroke="#263238" stroke-linecap="round" stroke-linejoin="round"/>
<path d="M189.447 54.0593C189.447 53.1634 189.182 52.2875 188.684 51.5426C188.186 50.7976 187.479 50.217 186.651 49.8741C185.823 49.5313 184.912 49.4416 184.033 49.6163C183.155 49.7911 182.348 50.2226 181.714 50.8561C181.08 51.4896 180.649 52.2968 180.474 53.1755C180.299 54.0543 180.389 54.9651 180.732 55.7929C181.075 56.6206 181.656 57.3281 182.4 57.8259C183.145 58.3236 184.021 58.5893 184.917 58.5893C186.119 58.5893 187.271 58.112 188.12 57.2625C188.97 56.413 189.447 55.2607 189.447 54.0593Z" fill="#263238" stroke="#263238" stroke-linecap="round" stroke-linejoin="round"/>
<path d="M208.227 54.0593C208.227 53.1634 207.962 52.2875 207.464 51.5426C206.966 50.7976 206.259 50.217 205.431 49.8741C204.603 49.5313 203.692 49.4416 202.814 49.6163C201.935 49.7911 201.128 50.2226 200.494 50.8561C199.861 51.4896 199.429 52.2968 199.255 53.1755C199.08 54.0543 199.169 54.9651 199.512 55.7929C199.855 56.6206 200.436 57.3281 201.181 57.8259C201.926 58.3236 202.802 58.5893 203.697 58.5893C204.899 58.5893 206.051 58.112 206.901 57.2625C207.75 56.413 208.227 55.2607 208.227 54.0593Z" fill="#263238" stroke="#263238" stroke-linecap="round" stroke-linejoin="round"/>
<path d="M226.998 54.0593C226.998 53.1634 226.732 52.2875 226.234 51.5426C225.736 50.7976 225.029 50.217 224.201 49.8741C223.373 49.5313 222.462 49.4416 221.584 49.6163C220.705 49.7911 219.898 50.2226 219.264 50.8561C218.631 51.4896 218.199 52.2968 218.025 53.1755C217.85 54.0543 217.939 54.9651 218.282 55.7929C218.625 56.6206 219.206 57.3281 219.951 57.8259C220.696 58.3236 221.572 58.5893 222.468 58.5893C223.669 58.5893 224.821 58.112 225.671 57.2625C226.52 56.413 226.998 55.2607 226.998 54.0593Z" fill="#263238" stroke="#263238" stroke-linecap="round" stroke-linejoin="round"/>
<path d="M40.7075 182.32L56.9375 337.82" stroke="#263238" stroke-linecap="round" stroke-linejoin="round"/>
<path d="M56.6077 334.952L48.3477 326.262" stroke="#263238" stroke-linecap="round" stroke-linejoin="round"/>
<path d="M51.0677 329.062C51.0507 327.612 50.7233 326.182 50.1075 324.87C49.4917 323.557 48.6018 322.392 47.4977 321.452C45.1977 319.392 33.0677 314.292 31.9177 318.562C30.6677 323.242 43.0777 332.372 51.0677 329.062Z" fill="#C6FF00" stroke="#263238" stroke-linecap="round" stroke-linejoin="round"/>
<path d="M51.0678 329.1L39.5278 321.91" stroke="#263238" stroke-linecap="round" stroke-linejoin="round"/>
<path d="M50.9977 280.942L42.8477 273.602" stroke="#263238" stroke-linecap="round" stroke-linejoin="round"/>
<path d="M45.5777 276.451C45.5583 274.999 45.2289 273.568 44.6114 272.254C43.994 270.939 43.1029 269.772 41.9977 268.831C39.6977 266.771 27.5677 261.671 26.4177 265.941C25.1677 270.591 37.5777 279.711 45.5777 276.451Z" fill="#C6FF00" stroke="#263238" stroke-linecap="round" stroke-linejoin="round"/>
<path d="M45.5778 276.45L34.0278 269.25" stroke="#263238" stroke-linecap="round" stroke-linejoin="round"/>
<path d="M53.2677 303.892L45.0977 295.182" stroke="#263238" stroke-linecap="round" stroke-linejoin="round"/>
<path d="M47.8278 298.062C47.8108 296.612 47.4834 295.182 46.8676 293.87C46.2518 292.557 45.3619 291.392 44.2578 290.452C41.9478 288.392 29.8278 283.292 28.6778 287.562C27.4178 292.172 39.8378 301.292 47.8278 298.062Z" fill="#C6FF00" stroke="#263238" stroke-linecap="round" stroke-linejoin="round"/>
<path d="M47.8278 298.02L36.2778 290.83" stroke="#263238" stroke-linecap="round" stroke-linejoin="round"/>
<path d="M47.3675 246.891L39.1875 238.551" stroke="#263238" stroke-linecap="round" stroke-linejoin="round"/>
<path d="M41.9377 241.392C41.9207 239.942 41.5933 238.512 40.9775 237.2C40.3617 235.887 39.4718 234.722 38.3677 233.782C36.0577 231.722 23.9377 226.622 22.7777 230.892C21.5077 235.542 33.9377 244.662 41.9377 241.392Z" fill="#C6FF00" stroke="#263238" stroke-linecap="round" stroke-linejoin="round"/>
<path d="M41.9177 241.391L30.3677 234.201" stroke="#263238" stroke-linecap="round" stroke-linejoin="round"/>
<path d="M43.4276 209.402L35.5176 203.352" stroke="#263238" stroke-linecap="round" stroke-linejoin="round"/>
<path d="M38.2376 206.191C38.2214 204.739 37.8944 203.308 37.2786 201.994C36.6628 200.679 35.7725 199.512 34.6676 198.571C32.3676 196.511 20.2376 191.411 19.0876 195.681C17.8376 200.331 30.2476 209.451 38.2376 206.191Z" fill="#C6FF00" stroke="#263238" stroke-linecap="round" stroke-linejoin="round"/>
<path d="M38.2378 206.19L26.6978 198.99" stroke="#263238" stroke-linecap="round" stroke-linejoin="round"/>
<path d="M55.8076 322.972L62.6376 311.842" stroke="#263238" stroke-linecap="round" stroke-linejoin="round"/>
<path d="M60.5574 315.191C60.2741 313.768 60.2988 312.301 60.63 310.888C60.9612 309.475 61.5911 308.15 62.4774 307.001C64.3074 304.511 75.1174 297.001 77.1274 301.001C79.3074 305.241 69.0474 316.731 60.5574 315.191Z" fill="#C6FF00" stroke="#263238" stroke-linecap="round" stroke-linejoin="round"/>
<path d="M60.5576 315.19L68.6776 307.57" stroke="#263238" stroke-linecap="round" stroke-linejoin="round"/>
<path d="M49.8877 266.191L56.7077 255.061" stroke="#263238" stroke-linecap="round" stroke-linejoin="round"/>
<path d="M54.6277 258.401C54.3444 256.978 54.3691 255.511 54.7003 254.098C55.0315 252.685 55.6614 251.36 56.5477 250.211C58.3777 247.731 66.8377 241.491 68.8477 245.431C71.0277 249.721 63.1277 259.951 54.6277 258.401Z" fill="#C6FF00" stroke="#263238" stroke-linecap="round" stroke-linejoin="round"/>
<path d="M54.6274 258.401L65.0274 248.471" stroke="#263238" stroke-linecap="round" stroke-linejoin="round"/>
<path d="M47.2778 241.241L54.1078 230.111" stroke="#263238" stroke-linecap="round" stroke-linejoin="round"/>
<path d="M52.0277 233.451C51.743 232.028 51.7661 230.561 52.0956 229.149C52.425 227.736 53.0532 226.41 53.9378 225.261C55.7678 222.771 66.5778 215.261 68.5878 219.261C70.7778 223.501 60.5177 234.991 52.0277 233.451Z" fill="#C6FF00" stroke="#263238" stroke-linecap="round" stroke-linejoin="round"/>
<path d="M52.0278 233.452L62.4178 223.512" stroke="#263238" stroke-linecap="round" stroke-linejoin="round"/>
<path d="M43.4575 204.651L50.2875 193.521" stroke="#263238" stroke-linecap="round" stroke-linejoin="round"/>
<path d="M48.2076 196.861C47.9244 195.439 47.9493 193.973 48.2805 192.562C48.6117 191.151 49.2416 189.828 50.1276 188.681C51.9576 186.191 62.7676 178.681 64.7776 182.631C66.9376 186.921 56.6976 198.411 48.2076 196.861Z" fill="#C6FF00" stroke="#263238" stroke-linecap="round" stroke-linejoin="round"/>
<path d="M48.2075 196.862L58.5975 186.932" stroke="#263238" stroke-linecap="round" stroke-linejoin="round"/>
<path d="M40.5478 181.262C40.2629 179.837 40.2869 178.368 40.6181 176.953C40.9494 175.539 41.5801 174.212 42.4678 173.061C44.2978 170.571 55.1078 163.061 57.1178 167.061C59.2978 171.321 49.0378 182.812 40.5478 181.262Z" fill="#C6FF00" stroke="#263238" stroke-linecap="round" stroke-linejoin="round"/>
<path d="M40.5474 181.26L50.9374 171.33" stroke="#263238" stroke-linecap="round" stroke-linejoin="round"/>
<path d="M41.1477 181.691C39.7031 181.824 38.2467 181.645 36.877 181.168C35.5072 180.69 34.256 179.924 33.2077 178.921C30.9177 176.841 24.5977 165.301 28.7277 163.721C33.2177 161.991 43.5677 173.401 41.1477 181.691Z" fill="#C6FF00" stroke="#263238" stroke-linecap="round" stroke-linejoin="round"/>
<path d="M41.1474 181.691L32.3574 170.311" stroke="#263238" stroke-linecap="round" stroke-linejoin="round"/>
<path d="M70.3677 131.182V338.232" stroke="#263238" stroke-linecap="round" stroke-linejoin="round"/>
<path d="M92.9377 208.451L79.3677 337.581" stroke="#263238" stroke-linecap="round" stroke-linejoin="round"/>
<path d="M82.9675 305.251L76.2075 299.611" stroke="#263238" stroke-linecap="round" stroke-linejoin="round"/>
<path d="M78.3178 301.561C78.5978 300.137 78.5704 298.67 78.2376 297.258C77.9048 295.845 77.2741 294.52 76.3878 293.371C74.5578 290.891 63.7378 283.371 61.7378 287.371C59.5578 291.631 69.8178 303.111 78.3178 301.561Z" fill="#C6FF00" stroke="#263238" stroke-linecap="round" stroke-linejoin="round"/>
<path d="M78.3176 301.561L68.4976 292.141" stroke="#263238" stroke-linecap="round" stroke-linejoin="round"/>
<path d="M80.4478 329.101L73.9878 319.801" stroke="#263238" stroke-linecap="round" stroke-linejoin="round"/>
<path d="M76.0776 323.141C76.3576 321.717 76.3302 320.25 75.9974 318.838C75.6645 317.425 75.0339 316.1 74.1476 314.951C72.3176 312.471 61.4976 304.951 59.4976 308.951C57.3176 313.211 67.5776 324.691 76.0776 323.141Z" fill="#C6FF00" stroke="#263238" stroke-linecap="round" stroke-linejoin="round"/>
<path d="M76.0778 323.141L66.2578 313.721" stroke="#263238" stroke-linecap="round" stroke-linejoin="round"/>
<path d="M86.3877 270.68L79.8677 263.16" stroke="#263238" stroke-linecap="round" stroke-linejoin="round"/>
<path d="M81.9378 266.511C82.2178 265.087 82.1904 263.62 81.8576 262.208C81.5247 260.795 80.8941 259.47 80.0078 258.321C78.1778 255.831 67.3578 248.321 65.3478 252.321C63.1878 256.571 73.4578 268.061 81.9378 266.511Z" fill="#C6FF00" stroke="#263238" stroke-linecap="round" stroke-linejoin="round"/>
<path d="M81.9577 266.512L72.1377 257.092" stroke="#263238" stroke-linecap="round" stroke-linejoin="round"/>
<path d="M89.8178 237.731L83.5278 227.961" stroke="#263238" stroke-linecap="round" stroke-linejoin="round"/>
<path d="M85.6078 231.3C85.8878 229.876 85.8605 228.409 85.5277 226.997C85.1948 225.584 84.5641 224.259 83.6778 223.11C81.8478 220.62 71.0278 213.11 69.0278 217.11C66.8478 221.36 77.1078 232.85 85.6078 231.3Z" fill="#C6FF00" stroke="#263238" stroke-linecap="round" stroke-linejoin="round"/>
<path d="M85.6076 231.301L75.7876 221.881" stroke="#263238" stroke-linecap="round" stroke-linejoin="round"/>
<path d="M84.6475 292.412L93.6175 282.932" stroke="#263238" stroke-linecap="round" stroke-linejoin="round"/>
<path d="M90.9375 285.771C90.9537 284.32 91.2807 282.889 91.8965 281.574C92.5123 280.26 93.4027 279.093 94.5075 278.151C96.8075 276.091 108.937 270.981 110.087 275.251C111.287 279.901 98.9375 289.061 90.9375 285.771Z" fill="#C6FF00" stroke="#263238" stroke-linecap="round" stroke-linejoin="round"/>
<path d="M90.8877 285.771L103.108 278.191" stroke="#263238" stroke-linecap="round" stroke-linejoin="round"/>
<path d="M87.2378 267.461L96.2078 257.971" stroke="#263238" stroke-linecap="round" stroke-linejoin="round"/>
<path d="M93.4775 260.81C93.4945 259.36 93.8219 257.931 94.4377 256.618C95.0536 255.305 95.9435 254.14 97.0475 253.2C99.3475 251.14 111.478 246.03 112.628 250.3C113.878 254.94 101.478 264.06 93.4775 260.81Z" fill="#C6FF00" stroke="#263238" stroke-linecap="round" stroke-linejoin="round"/>
<path d="M93.4775 260.81L105.698 253.23" stroke="#263238" stroke-linecap="round" stroke-linejoin="round"/>
<path d="M90.9277 229.001L99.9977 221.381" stroke="#263238" stroke-linecap="round" stroke-linejoin="round"/>
<path d="M97.2778 224.23C97.294 222.779 97.6211 221.348 98.2369 220.033C98.8527 218.719 99.743 217.552 100.848 216.61C103.148 214.55 115.268 209.44 116.428 213.71C117.678 218.36 105.268 227.49 97.2778 224.23Z" fill="#C6FF00" stroke="#263238" stroke-linecap="round" stroke-linejoin="round"/>
<path d="M97.2778 224.231L109.498 216.641" stroke="#263238" stroke-linecap="round" stroke-linejoin="round"/>
<path d="M92.9878 207.38C93.0046 205.929 93.332 204.498 93.9477 203.184C94.5635 201.869 95.4534 200.702 96.5578 199.76C98.8578 197.7 110.988 192.6 112.138 196.87C113.388 201.51 100.988 210.64 92.9878 207.38Z" fill="#C6FF00" stroke="#263238" stroke-linecap="round" stroke-linejoin="round"/>
<path d="M92.9878 207.381L105.208 199.801" stroke="#263238" stroke-linecap="round" stroke-linejoin="round"/>
<path d="M93.4875 207.92C92.0475 207.751 90.6603 207.277 89.4185 206.528C88.1768 205.78 87.1093 204.775 86.2875 203.58C84.4875 201.07 80.6775 188.48 85.0475 187.78C89.7975 187.06 97.5675 200.31 93.4875 207.92Z" fill="#C6FF00" stroke="#263238" stroke-linecap="round" stroke-linejoin="round"/>
<path d="M93.4875 207.92L87.2275 194.98" stroke="#263238" stroke-linecap="round" stroke-linejoin="round"/>
<path d="M70.0477 334.611L62.6177 324.691" stroke="#263238" stroke-linecap="round" stroke-linejoin="round"/>
<path d="M65.0378 327.802C65.1711 326.356 64.9937 324.899 64.5177 323.528C64.0417 322.157 63.278 320.904 62.2778 319.852C60.1978 317.572 48.6678 311.232 47.0778 315.362C45.3478 319.852 56.7478 330.222 65.0378 327.802Z" fill="#C6FF00" stroke="#263238" stroke-linecap="round" stroke-linejoin="round"/>
<path d="M65.0374 327.801L54.2974 319.441" stroke="#263238" stroke-linecap="round" stroke-linejoin="round"/>
<path d="M70.3077 286.752L62.6177 279.602" stroke="#263238" stroke-linecap="round" stroke-linejoin="round"/>
<path d="M65.0378 282.701C65.1702 281.257 64.9925 279.802 64.5165 278.433C64.0405 277.063 63.2772 275.811 62.2778 274.761C60.1978 272.471 48.6678 266.141 47.0778 270.271C45.3478 274.761 56.7478 285.121 65.0378 282.701Z" fill="#C6FF00" stroke="#263238" stroke-linecap="round" stroke-linejoin="round"/>
<path d="M65.0374 282.702L54.2974 274.352" stroke="#263238" stroke-linecap="round" stroke-linejoin="round"/>
<path d="M70.5677 237.02L62.6177 226.65" stroke="#263238" stroke-linecap="round" stroke-linejoin="round"/>
<path d="M65.0378 229.762C65.1702 228.318 64.9925 226.863 64.5165 225.493C64.0405 224.124 63.2772 222.872 62.2778 221.822C60.1978 219.532 48.6678 213.202 47.0778 217.332C45.3478 221.822 56.7478 232.182 65.0378 229.762Z" fill="#C6FF00" stroke="#263238" stroke-linecap="round" stroke-linejoin="round"/>
<path d="M65.0374 229.76L54.2974 221.41" stroke="#263238" stroke-linecap="round" stroke-linejoin="round"/>
<path d="M70.0477 198.1L62.6177 191.41" stroke="#263238" stroke-linecap="round" stroke-linejoin="round"/>
<path d="M65.0378 194.521C65.1709 193.078 64.9935 191.622 64.5174 190.253C64.0414 188.883 63.2777 187.631 62.2778 186.581C60.1978 184.291 48.6678 177.962 47.0778 182.092C45.3478 186.582 56.7478 196.941 65.0378 194.521Z" fill="#C6FF00" stroke="#263238" stroke-linecap="round" stroke-linejoin="round"/>
<path d="M65.0374 194.522L54.2974 186.172" stroke="#263238" stroke-linecap="round" stroke-linejoin="round"/>
<path d="M70.4776 162.841L62.7676 157.201" stroke="#263238" stroke-linecap="round" stroke-linejoin="round"/>
<path d="M65.0378 159.121C65.1702 157.677 64.9925 156.222 64.5165 154.853C64.0405 153.483 63.2772 152.231 62.2778 151.181C60.1978 148.891 48.6678 142.561 47.0778 146.691C45.3478 151.181 56.7478 161.541 65.0378 159.121Z" fill="#C6FF00" stroke="#263238" stroke-linecap="round" stroke-linejoin="round"/>
<path d="M65.0374 159.121L54.2974 150.771" stroke="#263238" stroke-linecap="round" stroke-linejoin="round"/>
<path d="M70.3877 277.1L78.3277 266.74" stroke="#263238" stroke-linecap="round" stroke-linejoin="round"/>
<path d="M75.9375 269.85C75.8043 268.406 75.9817 266.951 76.4578 265.581C76.9338 264.212 77.6975 262.96 78.6975 261.91C80.7775 259.62 92.3075 253.29 93.8975 257.41C95.5975 261.91 84.2075 272.27 75.9375 269.85Z" fill="#C6FF00" stroke="#263238" stroke-linecap="round" stroke-linejoin="round"/>
<path d="M75.9175 269.851L87.2875 261.051" stroke="#263238" stroke-linecap="round" stroke-linejoin="round"/>
<path d="M70.3877 241.712L78.3277 231.342" stroke="#263238" stroke-linecap="round" stroke-linejoin="round"/>
<path d="M75.9376 234.451C75.8051 233.007 75.9828 231.552 76.4588 230.183C76.9349 228.813 77.6982 227.561 78.6976 226.511C80.7776 224.221 92.3076 217.891 93.8976 222.021C95.5976 226.511 84.2076 236.871 75.9376 234.451Z" fill="#C6FF00" stroke="#263238" stroke-linecap="round" stroke-linejoin="round"/>
<path d="M75.9175 234.45L87.2875 225.65" stroke="#263238" stroke-linecap="round" stroke-linejoin="round"/>
<path d="M70.3877 194.921L78.3277 184.561" stroke="#263238" stroke-linecap="round" stroke-linejoin="round"/>
<path d="M75.9375 187.671C75.8043 186.226 75.9816 184.768 76.4576 183.397C76.9336 182.026 77.6973 180.773 78.6975 179.721C80.7775 177.441 92.3076 171.101 93.8976 175.231C95.5976 179.721 84.2075 190.061 75.9375 187.671Z" fill="#C6FF00" stroke="#263238" stroke-linecap="round" stroke-linejoin="round"/>
<path d="M75.9175 187.671L87.2875 178.861" stroke="#263238" stroke-linecap="round" stroke-linejoin="round"/>
<path d="M70.7275 154.541L78.5175 148.471" stroke="#263238" stroke-linecap="round" stroke-linejoin="round"/>
<path d="M75.9376 150.881C75.8051 149.437 75.9828 147.982 76.4588 146.612C76.9349 145.243 77.6982 143.991 78.6976 142.941C80.7776 140.651 92.3076 134.321 93.8976 138.451C95.5976 142.941 84.2076 153.301 75.9376 150.881Z" fill="#C6FF00" stroke="#263238" stroke-linecap="round" stroke-linejoin="round"/>
<path d="M75.9175 150.88L87.2875 142.08" stroke="#263238" stroke-linecap="round" stroke-linejoin="round"/>
<path d="M69.9374 134.57C69.805 133.126 69.9837 131.67 70.4615 130.3C70.9393 128.93 71.7052 127.679 72.7074 126.63C74.7874 124.34 86.3174 118.01 87.9074 122.14C89.5974 126.63 78.1974 136.99 69.9374 134.57Z" fill="#C6FF00" stroke="#263238" stroke-linecap="round" stroke-linejoin="round"/>
<path d="M69.9077 134.571L81.2877 125.771" stroke="#263238" stroke-linecap="round" stroke-linejoin="round"/>
<path d="M70.4678 135.061C69.0176 135.041 67.5883 134.711 66.2759 134.094C64.9634 133.476 63.7981 132.585 62.8578 131.481C60.7978 129.171 55.7178 117.041 59.9878 115.891C64.6278 114.651 73.7378 127.061 70.4678 135.061Z" fill="#C6FF00" stroke="#263238" stroke-linecap="round" stroke-linejoin="round"/>
<path d="M70.4677 135.06L62.9077 122.83" stroke="#263238" stroke-linecap="round" stroke-linejoin="round"/>
<path d="M347.078 338.23L331.588 275.5L211.938 276.35C205.688 286.88 192.338 322.54 186.578 338.23H347.078Z" fill="#263238" stroke="#263238" stroke-linecap="round" stroke-linejoin="round"/>
<path d="M424.148 244.32L433.308 245.89C433.308 245.89 452.148 244.58 453.718 244.58C455.288 244.58 466.548 253.74 466.548 253.74L447.438 253.48C447.438 253.48 433.838 257.4 429.128 257.4C424.418 257.4 418.658 251.91 418.658 251.91L424.148 244.32Z" fill="white" stroke="#263238" stroke-linecap="round" stroke-linejoin="round"/>
<path d="M427.818 250.34C427.818 250.34 444.818 250.86 446.658 250.6C448.498 250.34 452.418 247.98 452.418 250.34C452.418 252.7 449.798 251.91 447.418 253.48C446.024 254.416 444.535 255.204 442.978 255.83C442.978 255.83 439.308 256.88 436.168 257.4C433.028 257.92 432.248 257.66 429.108 257.4C427.233 257.248 425.429 256.618 423.868 255.57" fill="white"/>
<path d="M427.818 250.34C427.818 250.34 444.818 250.86 446.658 250.6C448.498 250.34 452.418 247.98 452.418 250.34C452.418 252.7 449.798 251.91 447.418 253.48C446.024 254.416 444.535 255.204 442.978 255.83C442.978 255.83 439.308 256.88 436.168 257.4C433.028 257.92 432.248 257.66 429.108 257.4C427.233 257.248 425.429 256.618 423.868 255.57" stroke="#263238" stroke-linecap="round" stroke-linejoin="round"/>
<path d="M380.657 189.169L367.657 162.249C367.657 162.249 368.207 132.059 367.657 127.669C367.107 123.279 366.567 119.159 358.057 116.669C349.547 114.179 299.317 118.309 299.317 118.309C299.317 118.309 285.937 119.629 274.097 121.719C262.257 123.809 236.097 123.959 234.757 128.079C233.417 132.199 227.257 226.079 227.257 226.079L202.697 281.339C202.697 281.339 225.697 300.279 273.507 297.529C321.317 294.779 338.037 280.059 338.037 280.059L324.587 232.059C324.587 232.059 346.817 212.299 347.367 206.259C347.917 200.219 348.187 195.549 348.187 195.549C348.187 195.549 361.917 216.689 364.657 218.339C367.397 219.989 419.157 256.259 419.157 256.259L426.297 243.629L382.507 193.079L380.657 189.259" fill="#858585"/>
<path d="M380.657 189.169L367.657 162.249C367.657 162.249 368.207 132.059 367.657 127.669C367.107 123.279 366.567 119.159 358.057 116.669C349.547 114.179 299.317 118.309 299.317 118.309C299.317 118.309 285.937 119.629 274.097 121.719C262.257 123.809 236.097 123.959 234.757 128.079C233.417 132.199 227.257 226.079 227.257 226.079L202.697 281.339C202.697 281.339 225.697 300.279 273.507 297.529C321.317 294.779 338.037 280.059 338.037 280.059L324.587 232.059C324.587 232.059 346.817 212.299 347.367 206.259C347.917 200.219 348.187 195.549 348.187 195.549C348.187 195.549 361.917 216.689 364.657 218.339C367.397 219.989 419.157 256.259 419.157 256.259L426.297 243.629L382.507 193.079L380.657 189.259" stroke="#263238" stroke-linecap="round" stroke-linejoin="round"/>
<path d="M348.188 195.459L352.828 151.299" stroke="#263238" stroke-linecap="round" stroke-linejoin="round"/>
<path d="M351.678 165.64C351.678 165.64 360.288 157.9 363.728 148.15" stroke="#263238" stroke-linecap="round" stroke-linejoin="round"/>
<path d="M360.217 168C361.621 167.628 362.987 167.126 364.297 166.5" stroke="#263238" stroke-linecap="round" stroke-linejoin="round"/>
<path d="M350.817 170.23C350.817 170.23 353.817 169.65 357.067 168.84" stroke="#263238" stroke-linecap="round" stroke-linejoin="round"/>
<path d="M288.078 117.24L278.198 152.65L288.908 161.65L277.098 173.18C277.098 173.18 281.488 190.47 287.808 203.92C294.128 217.37 298.238 223.46 298.238 223.46C298.238 223.46 323.768 211.38 330.348 200.68C336.928 189.98 345.718 173.23 345.718 173.23L338.038 165.55L349.288 159.55C349.288 159.55 345.588 143.71 343.288 133.75C341.977 127.943 339.962 122.318 337.288 117L288.078 117.24Z" fill="#C6FF00" stroke="#263238" stroke-linecap="round" stroke-linejoin="round"/>
<path d="M296.317 121.82C296.317 121.82 296.077 153.44 295.137 164.54C294.197 175.64 295.137 192.15 296.557 199.23C297.977 206.31 300.807 216.94 300.807 216.94C300.807 216.94 320.157 201.12 322.757 194.51C325.357 187.9 330.067 161.71 330.067 161.71L334.317 131.49L296.317 121.82Z" fill="white" stroke="#263238" stroke-linecap="round" stroke-linejoin="round"/>
<path d="M297.258 116.15L295.138 160.53L314.018 148.25L329.838 165.72L333.848 129.37L297.258 116.15Z" fill="white" stroke="#263238" stroke-linecap="round" stroke-linejoin="round"/>
<path d="M304.107 131.26L311.937 167.13L326.337 137.87C326.337 137.87 309.277 137.19 304.107 131.26Z" fill="white" stroke="#263238" stroke-linecap="round" stroke-linejoin="round"/>
<path d="M288.287 94.5396C285.816 90.6499 283.605 86.601 281.667 82.4196C279.147 76.7096 279.607 74.4196 282.117 68.4796C284.627 62.5396 294.917 45.3996 301.777 42.4196C305.759 40.6587 310.008 39.5771 314.347 39.2196C314.347 39.2196 339.717 38.5396 351.347 50.8796C362.977 63.2196 363.227 84.2496 360.487 89.7396C358.473 93.8082 354.944 96.9246 350.657 98.4196C348.377 99.1096 346.567 99.7496 346.567 99.7496C346.567 99.7496 343.807 99.7496 341.977 99.7496C340.147 99.7496 330.547 94.2696 322.087 87.1796C318.176 84.0511 314.437 80.7129 310.887 77.1796C310.887 77.1796 301.057 84.2596 297.637 87.4596C294.217 90.6596 293.287 92.7196 293.287 92.7196L291.957 97.8696L288.287 94.5396Z" fill="#263238" stroke="#263238" stroke-linecap="round" stroke-linejoin="round"/>
<path d="M288.068 99.1087C288.068 99.1087 279.608 97.7387 274.808 102.309C270.008 106.879 269.548 118.309 274.118 121.739C278.688 125.169 289.118 128.209 294.008 126.739C298.898 125.269 300.408 120.559 300.408 115.739C300.408 110.919 295.608 101.339 294.688 99.5187C293.768 97.6987 288.068 99.1087 288.068 99.1087Z" fill="#263238" stroke="#263238" stroke-linecap="round" stroke-linejoin="round"/>
<path d="M291.987 97.8587C291.987 97.8587 287.887 91.2287 284.727 96.8587C281.567 102.489 286.307 107.909 289.727 109.799C291.395 110.803 293.206 111.548 295.097 112.009L291.987 97.8587Z" fill="white" stroke="#263238" stroke-linecap="round" stroke-linejoin="round"/>
<path d="M346.598 99.7504C346.598 99.7504 352.598 96.2804 353.228 101.33C353.858 106.38 349.438 111.43 347.228 113.01C345.018 114.59 343.438 115.85 343.438 115.85L346.598 99.7504Z" fill="white" stroke="#263238" stroke-linecap="round" stroke-linejoin="round"/>
<path d="M291.357 88.7001C291.357 88.7001 295.147 119.06 298.937 125.32C302.727 131.58 309.677 142.68 318.517 142.68C327.357 142.68 337.137 132.9 340.927 123.74C344.717 114.58 346.607 99.7401 346.607 99.7401C346.607 99.7401 331.767 93.7401 320.087 81.7401C308.407 69.7401 311.257 68.1602 311.257 68.1602C311.257 68.1602 297.667 85.8601 291.357 88.7001Z" fill="white" stroke="#263238" stroke-linecap="round" stroke-linejoin="round"/>
<path d="M315.257 116.48C315.257 116.48 320.977 121.05 326.007 116.94" stroke="#263238" stroke-linecap="round" stroke-linejoin="round"/>
<path d="M311.837 123.109C311.837 123.109 319.607 130.649 329.657 122.879" stroke="#263238" stroke-linecap="round" stroke-linejoin="round"/>
<path d="M310.488 101.55C310.4 101.986 310.191 102.389 309.885 102.711C309.578 103.033 309.186 103.262 308.754 103.37C308.323 103.478 307.869 103.461 307.447 103.322C307.024 103.183 306.65 102.926 306.368 102.583C306.085 102.239 305.906 101.822 305.851 101.381C305.796 100.939 305.867 100.491 306.057 100.089C306.247 99.6864 306.547 99.346 306.922 99.1073C307.297 98.8686 307.733 98.7413 308.178 98.7402C308.854 98.8135 309.474 99.1487 309.906 99.674C310.338 100.199 310.546 100.873 310.488 101.55Z" fill="#263238"/>
<path d="M334.038 102.99C333.952 103.429 333.744 103.835 333.437 104.16C333.13 104.485 332.736 104.716 332.303 104.827C331.869 104.937 331.413 104.922 330.988 104.783C330.563 104.644 330.186 104.387 329.901 104.042C329.616 103.697 329.435 103.278 329.379 102.835C329.323 102.391 329.395 101.94 329.585 101.535C329.776 101.13 330.077 100.788 330.455 100.548C330.832 100.308 331.27 100.18 331.718 100.18C332.394 100.253 333.016 100.588 333.449 101.113C333.883 101.638 334.094 102.311 334.038 102.99Z" fill="#263238"/>
<path d="M302.938 93.1697C302.938 93.1697 307.277 90.4197 314.367 92.7097" stroke="#263238" stroke-linecap="round" stroke-linejoin="round"/>
<path d="M328.288 94.3091C328.288 94.3091 331.488 91.1091 341.548 97.7391" stroke="#263238" stroke-linecap="round" stroke-linejoin="round"/>
<path d="M315.687 95.5852L303.165 94.9158C300.887 94.794 298.942 96.5417 298.82 98.8194L298.553 103.812C298.431 106.09 300.179 108.035 302.457 108.157L314.979 108.826C317.257 108.948 319.202 107.2 319.324 104.923L319.59 99.9298C319.712 97.6521 317.964 95.7069 315.687 95.5852Z" stroke="#263238" stroke-linecap="round" stroke-linejoin="round"/>
<path d="M341.814 96.0679L329.274 95.4409C326.993 95.3268 325.051 97.0834 324.937 99.3644L324.687 104.364C324.573 106.645 326.33 108.587 328.611 108.701L341.151 109.328C343.431 109.442 345.373 107.685 345.487 105.404L345.737 100.404C345.851 98.1234 344.094 96.1819 341.814 96.0679Z" stroke="#263238" stroke-width="1.00125" stroke-linecap="round" stroke-linejoin="round"/>
<path d="M319.567 98.8203L324.107 99.1203" stroke="#263238" stroke-linecap="round" stroke-linejoin="round"/>
<path d="M298.838 98.68L291.708 96.5" stroke="#263238" stroke-linecap="round" stroke-linejoin="round"/>
<path d="M344.547 101.29L346.597 99.75" stroke="#263238" stroke-linecap="round" stroke-linejoin="round"/>
<path d="M189.558 182.63L186.818 174.63C186.818 174.63 184.618 166.95 182.148 163.63C179.678 160.31 175.018 159.24 173.088 156.77C171.158 154.3 168.698 147.44 167.088 145.52C165.478 143.6 162.148 145.24 162.968 149.63C163.788 154.02 165.708 155.4 166.538 157.05C167.368 158.7 169.278 163.05 169.278 163.05C169.278 163.05 151.438 160.05 150.338 159.76C149.238 159.47 145.948 155.92 145.128 153.76C144.308 151.6 144.578 142.76 141.278 145.53C137.978 148.3 139.908 154.04 140.458 155.41C141.008 156.78 140.458 166.41 141.828 171.33C143.198 176.25 147.828 181.21 154.728 184.5C161.628 187.79 175.048 188.9 175.048 188.9L180.258 194.11L189.558 182.63Z" fill="white" stroke="#263238" stroke-linecap="round" stroke-linejoin="round"/>
<path d="M138.508 169.18C138.508 169.18 134.938 162.76 134.938 158.06C134.938 153.36 135.257 148.98 137.697 150.12C140.137 151.26 139.697 151.12 140.387 155.47C140.954 158.81 141.901 162.075 143.208 165.2C143.538 165.69 146.127 172.2 143.857 172.34C141.587 172.48 138.508 169.18 138.508 169.18Z" fill="white" stroke="#263238" stroke-linecap="round" stroke-linejoin="round"/>
<path d="M145.938 169.18C145.938 169.18 140.998 155.18 138.528 157.65C136.058 160.12 136.328 163.14 138.528 169.18C140.728 175.22 145.388 179.89 149.228 180.44L153.078 180.99L145.938 169.18Z" fill="white" stroke="#263238" stroke-linecap="round" stroke-linejoin="round"/>
<path d="M176.108 179.89C176.108 179.89 170.108 174.95 166.228 174.95C162.348 174.95 153.328 176.32 153.328 176.32C153.328 176.32 147.018 155.18 145.098 158.75C143.178 162.32 143.718 165.89 145.648 171.38C147.578 176.87 150.308 181.81 154.648 184.55C158.988 187.29 174.968 188.95 174.968 188.95" fill="white"/>
<path d="M176.108 179.89C176.108 179.89 170.108 174.95 166.228 174.95C162.348 174.95 153.328 176.32 153.328 176.32C153.328 176.32 147.018 155.18 145.098 158.75C143.178 162.32 143.718 165.89 145.648 171.38C147.578 176.87 150.308 181.81 154.648 184.55C158.988 187.29 174.968 188.95 174.968 188.95" stroke="#263238" stroke-linecap="round" stroke-linejoin="round"/>
<path d="M195.877 186.48L189.557 180.16L175.567 193.61L182.427 199.1L195.877 186.48Z" fill="white" stroke="#263238" stroke-linecap="round" stroke-linejoin="round"/>
<path d="M259.378 123.49C259.378 123.49 239.788 124.17 235.128 126.36C230.468 128.55 229.908 131.85 229.638 133.23C229.368 134.61 221.128 207.89 221.128 207.89L194.227 182.36L176.938 199.06C176.938 199.06 200.817 230.35 206.307 238.86C211.797 247.37 216.737 255.33 221.397 256.15C226.057 256.97 227.718 257.25 233.478 255.61C239.238 253.97 246.657 241.14 246.938 240.06C247.218 238.98 259.568 169.75 259.568 169.75" fill="#858585"/>
<path d="M259.378 123.49C259.378 123.49 239.788 124.17 235.128 126.36C230.468 128.55 229.908 131.85 229.638 133.23C229.368 134.61 221.128 207.89 221.128 207.89L194.227 182.36L176.938 199.06C176.938 199.06 200.817 230.35 206.307 238.86C211.797 247.37 216.737 255.33 221.397 256.15C226.057 256.97 227.718 257.25 233.478 255.61C239.238 253.97 246.657 241.14 246.938 240.06C247.218 238.98 259.568 169.75 259.568 169.75" stroke="#263238" stroke-linecap="round" stroke-linejoin="round"/>
<path d="M234.998 215.92L238.658 218.04" stroke="#263238" stroke-linecap="round" stroke-linejoin="round"/>
<path d="M221.127 207.889L232.747 214.619" stroke="#263238" stroke-linecap="round" stroke-linejoin="round"/>
<path d="M265.627 244.199C263.417 245.119 261.377 245.919 259.627 246.549" stroke="#263238" stroke-linecap="round" stroke-linejoin="round"/>
<path d="M306.038 225.689C306.038 225.689 287.498 234.689 272.388 241.319" stroke="#263238" stroke-linecap="round" stroke-linejoin="round"/>
<path d="M315.407 226.969L291.987 239.309" stroke="#263238" stroke-linecap="round" stroke-linejoin="round"/>
<path d="M509.128 250.409H539.748C539.748 250.409 544.178 250.409 542.568 257.259C540.958 264.109 534.508 301.569 533.698 315.669C532.888 329.769 532.088 338.229 532.088 338.229H413.278L427.608 255.619C427.882 254.05 428.701 252.629 429.922 251.606C431.142 250.583 432.685 250.025 434.278 250.029L509.128 250.409Z" fill="#263238" stroke="#263238" stroke-linecap="round" stroke-linejoin="round"/>
<path d="M413.448 196.771C413.448 196.771 378.668 206.511 378.108 209.851C377.548 213.191 362.808 294.721 362.808 294.721C362.808 294.721 289.938 275.801 285.728 275.801C281.518 275.801 265.408 289.431 263.188 291.101C260.968 292.771 257.898 294.171 257.618 297.501C257.338 300.831 254.558 306.131 257.618 308.631C260.678 311.131 262.618 313.371 263.738 311.971C264.858 310.571 263.468 305.851 263.188 304.971C262.908 304.091 280.718 294.971 280.718 294.971L287.948 293.301C285.367 295.603 282.571 297.653 279.598 299.421C274.868 302.201 273.208 306.941 275.708 307.211C278.208 307.481 278.488 306.381 285.708 304.151C292.928 301.921 299.058 294.691 299.058 294.691C299.058 294.691 369.458 327.531 373.358 327.531C377.258 327.531 376.698 328.361 380.038 323.911C383.378 319.461 394.228 287.741 394.228 287.741L398.398 328.921V338.111H507.778C507.778 338.111 507.218 219.561 506.668 217.891C506.118 216.221 463.408 189.311 463.408 189.311L413.448 196.771Z" fill="#C6FF00" stroke="#263238" stroke-linecap="round" stroke-linejoin="round"/>
<path d="M383.928 274.559L381.518 271.469" stroke="#263238" stroke-linecap="round" stroke-linejoin="round"/>
<path d="M394.248 287.769L386.048 277.279" stroke="#263238" stroke-linecap="round" stroke-linejoin="round"/>
<path d="M383.748 253.8L382.488 249.75" stroke="#263238" stroke-linecap="round" stroke-linejoin="round"/>
<path d="M388.678 250.41L394.248 287.76L385.048 258.02" stroke="#263238" stroke-linecap="round" stroke-linejoin="round"/>
<path d="M472.218 194.93L463.408 189.34L413.408 196.77L436.778 247.14L472.218 194.93Z" fill="white" stroke="#263238" stroke-linecap="round" stroke-linejoin="round"/>
<path d="M410.938 122.42C404.288 127 394.808 137.02 396.938 143.42C399.178 150.14 402.538 151.63 402.538 151.63C402.538 151.63 399.538 160.96 402.168 163.95C403.728 165.734 404.988 167.761 405.898 169.95C405.898 169.95 400.298 185.63 402.898 187.5L405.508 189.36C405.508 189.36 409.988 207.28 413.348 208.36C416.708 209.44 426.788 206.49 426.788 206.49L436.938 233.76L463.448 189.34L460.828 180.34C460.828 180.34 476.508 154.59 470.168 136.34C466.518 125.83 457.058 118.57 446.618 115.52C435.088 112.16 425.128 115.86 414.408 120.45C413.19 120.993 412.028 121.653 410.938 122.42Z" fill="#C2C2C2" stroke="#263238" stroke-linecap="round" stroke-linejoin="round"/>
<path d="M470.128 136.34C466.478 125.83 457.018 118.57 446.578 115.52C435.048 112.16 425.088 115.86 414.368 120.45C413.17 121.006 412.028 121.676 410.958 122.45C404.308 127.03 394.828 137.05 396.958 143.45C399.198 150.17 402.558 151.66 402.558 151.66C403.725 151.798 404.908 151.675 406.022 151.3C407.136 150.924 408.152 150.306 408.998 149.49C411.778 146.71 418.998 141.7 424.858 142.49C430.718 143.28 430.698 150.28 428.748 153.62C426.798 156.96 426.248 160.86 431.258 161.97C436.268 163.08 437.658 163.08 437.658 166.97C437.658 170.86 437.378 173.97 440.438 173.37C443.498 172.77 443.778 171.42 445.168 168.37C446.558 165.32 452.678 160.58 456.018 170.04C459.358 179.5 452.678 183.95 452.678 183.95C455.595 182.9 458.399 181.56 461.048 179.95C463.038 176.53 475.988 153.25 470.128 136.34Z" fill="#263238" stroke="#263238" stroke-linecap="round" stroke-linejoin="round"/>
<path d="M409.268 168.39C409.268 168.39 417.338 164.77 422.628 168.39" stroke="#263238" stroke-linecap="round" stroke-linejoin="round"/>
<path d="M408.998 193.43C408.998 193.43 417.618 196.77 423.188 190.65" stroke="#263238" stroke-linecap="round" stroke-linejoin="round"/>
<path d="M405.548 189.34L410.108 190.1" stroke="#263238" stroke-linecap="round" stroke-linejoin="round"/>
<path d="M419.288 174.709C419.288 176.279 418.418 177.559 417.288 177.559C416.158 177.559 415.338 176.279 415.338 174.709C415.338 173.139 416.208 171.869 417.288 171.869C418.368 171.869 419.288 173.139 419.288 174.709Z" fill="#263238"/>
<path d="M426.828 206.51C426.828 206.51 436.828 202.62 439.608 200.67C442.388 198.72 444.058 197.33 444.058 197.33L430.418 215.42L426.828 206.51Z" fill="#263238"/>
<path d="M310.408 281.409C297.668 278.259 287.228 275.799 285.728 275.799C281.548 275.799 265.408 289.429 263.188 291.099C260.968 292.769 257.898 294.169 257.618 297.499C257.338 300.829 254.558 306.129 257.618 308.629C260.678 311.129 262.618 313.369 263.738 311.969C264.858 310.569 263.468 305.849 263.188 304.969C262.908 304.089 280.718 294.969 280.718 294.969L287.948 293.299C285.367 295.602 282.571 297.651 279.598 299.419C274.868 302.199 273.208 306.939 275.708 307.209C278.208 307.479 278.488 306.379 285.708 304.149C292.928 301.919 299.058 294.689 299.058 294.689C299.058 294.689 302.308 296.209 307.438 298.579C309.059 296.062 310.157 293.245 310.668 290.296C311.178 287.346 311.089 284.324 310.408 281.409Z" fill="#C2C2C2" stroke="#263238" stroke-linecap="round" stroke-linejoin="round"/>
<path d="M299.078 294.72L302.138 287.49" stroke="#263238" stroke-linecap="round" stroke-linejoin="round"/>
<path d="M271.808 291.66C271.808 291.66 258.178 300.29 255.668 301.96C253.158 303.63 244.538 305.57 245.378 307.24C246.218 308.91 248.158 309.75 252.058 308.63C256.508 307.541 260.878 306.148 265.138 304.46C269.588 302.51 280.718 295 280.718 295" fill="#C2C2C2"/>
<path d="M271.808 291.66C271.808 291.66 258.178 300.29 255.668 301.96C253.158 303.63 244.538 305.57 245.378 307.24C246.218 308.91 248.158 309.75 252.058 308.63C256.508 307.541 260.878 306.148 265.138 304.46C269.588 302.51 280.718 295 280.718 295" stroke="#263238" stroke-linecap="round" stroke-linejoin="round"/>
<path d="M493.868 209.061C493.868 209.061 512.788 217.411 515.288 222.141C517.788 226.871 522.808 330.141 523.078 333.141C523.176 334.207 522.854 335.269 522.179 336.101C521.505 336.932 520.532 337.467 519.468 337.591C518.078 337.871 429.308 337.321 426.808 337.321C424.308 337.321 418.178 336.761 414.558 335.091C410.938 333.421 408.158 333.981 407.878 329.521C407.788 326.275 407.881 323.026 408.158 319.791C408.158 318.121 407.048 313.391 408.158 310.601C409.268 307.811 411.498 307.821 412.608 307.541C414.368 307.397 416.137 307.397 417.898 307.541C418.878 306.777 420.048 306.296 421.282 306.149C422.516 306.003 423.766 306.197 424.898 306.711C429.068 308.381 436.028 318.391 436.028 318.391C436.028 318.391 442.708 320.341 453.278 318.671C463.848 317.001 487.778 311.991 487.778 311.991L478.318 252.721" fill="#C6FF00"/>
<path d="M493.868 209.061C493.868 209.061 512.788 217.411 515.288 222.141C517.788 226.871 522.808 330.141 523.078 333.141C523.176 334.207 522.854 335.269 522.179 336.101C521.505 336.932 520.532 337.467 519.468 337.591C518.078 337.871 429.308 337.321 426.808 337.321C424.308 337.321 418.178 336.761 414.558 335.091C410.938 333.421 408.158 333.981 407.878 329.521C407.788 326.275 407.881 323.026 408.158 319.791C408.158 318.121 407.048 313.391 408.158 310.601C409.268 307.811 411.498 307.821 412.608 307.541C414.368 307.397 416.137 307.397 417.898 307.541C418.878 306.777 420.048 306.296 421.282 306.149C422.516 306.003 423.766 306.197 424.898 306.711C429.068 308.381 436.028 318.391 436.028 318.391C436.028 318.391 442.708 320.341 453.278 318.671C463.848 317.001 487.778 311.991 487.778 311.991L478.318 252.721" stroke="#263238" stroke-linecap="round" stroke-linejoin="round"/>
<path d="M487.738 311.969L489.138 321.989" stroke="#263238" stroke-linecap="round" stroke-linejoin="round"/>
<path d="M442.378 337.381C439.458 327.711 441.788 322.181 444.098 319.321C441.366 319.333 438.643 319.014 435.988 318.371C435.988 318.371 428.988 308.371 424.858 306.691C423.726 306.177 422.476 305.983 421.242 306.129C420.008 306.276 418.838 306.757 417.858 307.521C416.097 307.377 414.328 307.377 412.568 307.521C411.458 307.801 409.228 307.801 408.118 310.581C407.008 313.361 408.118 318.101 408.118 319.771C407.841 323.006 407.748 326.255 407.838 329.501C408.118 333.961 410.898 333.401 414.518 335.071C418.138 336.741 424.258 337.301 426.768 337.301L442.378 337.381Z" fill="#C2C2C2" stroke="#263238" stroke-linecap="round" stroke-linejoin="round"/>
<path d="M276.538 332.97H159.238L139.058 250.01H256.348L276.538 332.97Z" fill="white" stroke="#263238" stroke-linecap="round" stroke-linejoin="round"/>
<path d="M221.788 293.06C221.788 295.63 214.207 297.71 204.867 297.71C195.527 297.71 187.938 295.65 187.938 293.06C187.938 290.47 195.507 288.42 204.857 288.42C214.207 288.42 221.788 290.52 221.788 293.06Z" fill="white" stroke="#263238" stroke-linecap="round" stroke-linejoin="round"/>
<path d="M351.408 332.971H159.238V338.231H351.408V332.971Z" fill="#C2C2C2" stroke="#263238" stroke-linecap="round" stroke-linejoin="round"/>
<path d="M351.408 332.971H278.178V338.231H351.408V332.971Z" fill="white" stroke="#263238" stroke-linecap="round" stroke-linejoin="round"/>
<path d="M290.197 334.471H283.857V335.621H290.197V334.471Z" fill="white" stroke="#263238" stroke-linecap="round" stroke-linejoin="round"/>
<path d="M306.328 334.471H299.988V335.621H306.328V334.471Z" fill="white" stroke="#263238" stroke-linecap="round" stroke-linejoin="round"/>
<path d="M610.888 338.23H24.2876" stroke="#263238" stroke-linecap="round" stroke-linejoin="round"/>
</svg>
